<mxfile host="app.diagrams.net" agent="Mozilla/5.0 (Windows NT 10.0; Win64; x64) AppleWebKit/537.36 (KHTML, like Gecko) Chrome/126.0.0.0 YaBrowser/24.7.0.0 Safari/537.36" version="26.0.5">
  <diagram name="Page-1" id="ad52d381-51e7-2e0d-a935-2d0ddd2fd229">
    <mxGraphModel dx="1434" dy="801" grid="1" gridSize="10" guides="1" tooltips="1" connect="1" arrows="1" fold="1" page="1" pageScale="1" pageWidth="1169" pageHeight="827" background="none" math="0" shadow="1">
      <root>
        <mxCell id="0" />
        <mxCell id="1" parent="0" />
        <object label="Actor" id="4vAp6gm5ZY501MlphGq0-1">
          <mxCell style="shape=umlActor;verticalLabelPosition=bottom;verticalAlign=top;html=1;outlineConnect=0;fontFamily=Alumni Sans Pinstripe;fontSource=https%3A%2F%2Ffonts.googleapis.com%2Fcss%3Ffamily%3DAlumni%2BSans%2BPinstripe;fontStyle=1;fontSize=23;" vertex="1" parent="1">
            <mxGeometry x="320" y="90" width="30" height="60" as="geometry" />
          </mxCell>
        </object>
        <mxCell id="4vAp6gm5ZY501MlphGq0-6" value="" style="edgeStyle=orthogonalEdgeStyle;rounded=0;orthogonalLoop=1;jettySize=auto;html=1;entryX=0.993;entryY=0.443;entryDx=0;entryDy=0;entryPerimeter=0;fontFamily=Alumni Sans Pinstripe;fontSource=https%3A%2F%2Ffonts.googleapis.com%2Fcss%3Ffamily%3DAlumni%2BSans%2BPinstripe;fontStyle=1;fontSize=23;" edge="1" parent="1" source="4vAp6gm5ZY501MlphGq0-2" target="4vAp6gm5ZY501MlphGq0-4">
          <mxGeometry relative="1" as="geometry">
            <mxPoint x="820" y="280" as="targetPoint" />
          </mxGeometry>
        </mxCell>
        <mxCell id="4vAp6gm5ZY501MlphGq0-2" value="Actor" style="shape=umlActor;verticalLabelPosition=bottom;verticalAlign=top;html=1;outlineConnect=0;fontFamily=Alumni Sans Pinstripe;fontSource=https%3A%2F%2Ffonts.googleapis.com%2Fcss%3Ffamily%3DAlumni%2BSans%2BPinstripe;fontSize=23;fontStyle=1" vertex="1" parent="1">
          <mxGeometry x="920" y="110" width="30" height="60" as="geometry" />
        </mxCell>
        <mxCell id="4vAp6gm5ZY501MlphGq0-7" value="" style="edgeStyle=orthogonalEdgeStyle;rounded=0;orthogonalLoop=1;jettySize=auto;html=1;fontFamily=Alumni Sans Pinstripe;fontSource=https%3A%2F%2Ffonts.googleapis.com%2Fcss%3Ffamily%3DAlumni%2BSans%2BPinstripe;fontStyle=1;fontSize=23;" edge="1" parent="1" source="4vAp6gm5ZY501MlphGq0-3" target="4vAp6gm5ZY501MlphGq0-4">
          <mxGeometry relative="1" as="geometry" />
        </mxCell>
        <mxCell id="4vAp6gm5ZY501MlphGq0-3" value="Actor" style="shape=umlActor;verticalLabelPosition=bottom;verticalAlign=top;html=1;outlineConnect=0;fontFamily=Alumni Sans Pinstripe;fontSource=https%3A%2F%2Ffonts.googleapis.com%2Fcss%3Ffamily%3DAlumni%2BSans%2BPinstripe;fontStyle=1;fontSize=23;" vertex="1" parent="1">
          <mxGeometry x="600" width="30" height="60" as="geometry" />
        </mxCell>
        <mxCell id="4vAp6gm5ZY501MlphGq0-4" value="&lt;font data-font-src=&quot;https://fonts.googleapis.com/css?family=Alumni+Sans+Pinstripe&quot;&gt;&lt;span&gt;Информация о проблеме в системе&lt;/span&gt;&lt;/font&gt;" style="strokeWidth=2;html=1;shape=mxgraph.flowchart.database;whiteSpace=wrap;fontFamily=Alumni Sans Pinstripe;fontSource=https%3A%2F%2Ffonts.googleapis.com%2Fcss%3Ffamily%3DAlumni%2BSans%2BPinstripe;fontStyle=1;fontSize=23;" vertex="1" parent="1">
          <mxGeometry x="520" y="140" width="190" height="180" as="geometry" />
        </mxCell>
        <mxCell id="4vAp6gm5ZY501MlphGq0-8" style="edgeStyle=orthogonalEdgeStyle;rounded=0;orthogonalLoop=1;jettySize=auto;html=1;entryX=-0.017;entryY=0.4;entryDx=0;entryDy=0;entryPerimeter=0;fontFamily=Alumni Sans Pinstripe;fontSource=https%3A%2F%2Ffonts.googleapis.com%2Fcss%3Ffamily%3DAlumni%2BSans%2BPinstripe;fontStyle=1;fontSize=23;" edge="1" parent="1" source="4vAp6gm5ZY501MlphGq0-1" target="4vAp6gm5ZY501MlphGq0-4">
          <mxGeometry relative="1" as="geometry" />
        </mxCell>
        <mxCell id="4vAp6gm5ZY501MlphGq0-10" style="edgeStyle=orthogonalEdgeStyle;rounded=0;orthogonalLoop=1;jettySize=auto;html=1;fontFamily=Alumni Sans Pinstripe;fontSource=https%3A%2F%2Ffonts.googleapis.com%2Fcss%3Ffamily%3DAlumni%2BSans%2BPinstripe;fontStyle=1;fontSize=23;" edge="1" parent="1" source="4vAp6gm5ZY501MlphGq0-9" target="4vAp6gm5ZY501MlphGq0-4">
          <mxGeometry relative="1" as="geometry">
            <mxPoint x="618" y="230" as="targetPoint" />
            <Array as="points">
              <mxPoint x="380" y="230" />
              <mxPoint x="460" y="230" />
              <mxPoint x="460" y="260" />
              <mxPoint x="510" y="260" />
              <mxPoint x="510" y="230" />
            </Array>
          </mxGeometry>
        </mxCell>
        <mxCell id="4vAp6gm5ZY501MlphGq0-9" value="" style="sketch=0;pointerEvents=1;shadow=0;dashed=0;html=1;strokeColor=none;fillColor=#434445;aspect=fixed;labelPosition=center;verticalLabelPosition=bottom;verticalAlign=top;align=center;outlineConnect=0;shape=mxgraph.vvd.log_files;fontFamily=Alumni Sans Pinstripe;fontSource=https%3A%2F%2Ffonts.googleapis.com%2Fcss%3Ffamily%3DAlumni%2BSans%2BPinstripe;fontStyle=1;fontSize=23;" vertex="1" parent="1">
          <mxGeometry x="360" y="250" width="40" height="50" as="geometry" />
        </mxCell>
        <mxCell id="4vAp6gm5ZY501MlphGq0-11" value="" style="sketch=0;pointerEvents=1;shadow=0;dashed=0;html=1;strokeColor=none;fillColor=#434445;aspect=fixed;labelPosition=center;verticalLabelPosition=bottom;verticalAlign=top;align=center;outlineConnect=0;shape=mxgraph.vvd.log_files;fontFamily=Alumni Sans Pinstripe;fontSource=https%3A%2F%2Ffonts.googleapis.com%2Fcss%3Ffamily%3DAlumni%2BSans%2BPinstripe;fontStyle=1;fontSize=23;" vertex="1" parent="1">
          <mxGeometry x="850" y="190" width="40" height="50" as="geometry" />
        </mxCell>
        <mxCell id="4vAp6gm5ZY501MlphGq0-12" style="edgeStyle=orthogonalEdgeStyle;rounded=0;orthogonalLoop=1;jettySize=auto;html=1;entryX=1;entryY=0.85;entryDx=0;entryDy=0;entryPerimeter=0;fontFamily=Alumni Sans Pinstripe;fontSource=https%3A%2F%2Ffonts.googleapis.com%2Fcss%3Ffamily%3DAlumni%2BSans%2BPinstripe;fontStyle=1;fontSize=23;" edge="1" parent="1" source="4vAp6gm5ZY501MlphGq0-11" target="4vAp6gm5ZY501MlphGq0-4">
          <mxGeometry relative="1" as="geometry">
            <Array as="points">
              <mxPoint x="870" y="260" />
              <mxPoint x="780" y="260" />
              <mxPoint x="780" y="293" />
            </Array>
          </mxGeometry>
        </mxCell>
        <mxCell id="4vAp6gm5ZY501MlphGq0-13" value="" style="sketch=0;outlineConnect=0;fontColor=#232F3E;gradientColor=none;fillColor=#232F3D;strokeColor=none;dashed=0;verticalLabelPosition=bottom;verticalAlign=top;align=center;html=1;fontSize=23;fontStyle=1;aspect=fixed;pointerEvents=1;shape=mxgraph.aws4.camera2;fontFamily=Alumni Sans Pinstripe;fontSource=https%3A%2F%2Ffonts.googleapis.com%2Fcss%3Ffamily%3DAlumni%2BSans%2BPinstripe;" vertex="1" parent="1">
          <mxGeometry x="470" y="40" width="78" height="62" as="geometry" />
        </mxCell>
        <mxCell id="4vAp6gm5ZY501MlphGq0-14" style="edgeStyle=orthogonalEdgeStyle;rounded=0;orthogonalLoop=1;jettySize=auto;html=1;entryX=0.007;entryY=0.243;entryDx=0;entryDy=0;entryPerimeter=0;fontFamily=Alumni Sans Pinstripe;fontSource=https%3A%2F%2Ffonts.googleapis.com%2Fcss%3Ffamily%3DAlumni%2BSans%2BPinstripe;fontStyle=1;fontSize=23;" edge="1" parent="1" source="4vAp6gm5ZY501MlphGq0-13" target="4vAp6gm5ZY501MlphGq0-4">
          <mxGeometry relative="1" as="geometry" />
        </mxCell>
        <object label="" арп="" id="4vAp6gm5ZY501MlphGq0-15">
          <mxCell style="shape=image;html=1;verticalAlign=top;verticalLabelPosition=bottom;labelBackgroundColor=#ffffff;imageAspect=0;aspect=fixed;image=https://cdn0.iconfinder.com/data/icons/kameleon-free-pack/110/Hacker-128.png;fontFamily=Alumni Sans Pinstripe;fontSource=https%3A%2F%2Ffonts.googleapis.com%2Fcss%3Ffamily%3DAlumni%2BSans%2BPinstripe;fontStyle=1;fontSize=23;" vertex="1" parent="1">
            <mxGeometry x="690" y="7" width="128" height="128" as="geometry" />
          </mxCell>
        </object>
        <mxCell id="4vAp6gm5ZY501MlphGq0-16" style="edgeStyle=orthogonalEdgeStyle;rounded=0;orthogonalLoop=1;jettySize=auto;html=1;entryX=1;entryY=0.279;entryDx=0;entryDy=0;entryPerimeter=0;fontFamily=Alumni Sans Pinstripe;fontSource=https%3A%2F%2Ffonts.googleapis.com%2Fcss%3Ffamily%3DAlumni%2BSans%2BPinstripe;fontStyle=1;fontSize=23;" edge="1" parent="1" source="4vAp6gm5ZY501MlphGq0-15" target="4vAp6gm5ZY501MlphGq0-4">
          <mxGeometry relative="1" as="geometry" />
        </mxCell>
      </root>
    </mxGraphModel>
  </diagram>
</mxfile>
